<mxfile><diagram id="4pck-p1qvwNnbk6jwwlp" name="Page-1"><mxGraphModel dx="826" dy="564" grid="1" gridSize="10" guides="1" tooltips="1" connect="1" arrows="1" fold="1" page="1" pageScale="1" pageWidth="850" pageHeight="1100" math="0" shadow="0"><root><mxCell id="0"/><mxCell id="1" parent="0"/><mxCell id="9" style="edgeStyle=none;html=1;exitX=0.5;exitY=1;exitDx=0;exitDy=0;entryX=0.5;entryY=0;entryDx=0;entryDy=0;fontSize=5;fontColor=#FFFFFF;" parent="1" source="2" target="65" edge="1"><mxGeometry relative="1" as="geometry"><mxPoint x="69.89999999999998" y="198.08000000000004" as="targetPoint"/></mxGeometry></mxCell><mxCell id="2" value="&lt;font color=&quot;#000000&quot; style=&quot;font-size: 9px;&quot;&gt;Enter Website&lt;/font&gt;" style="ellipse;whiteSpace=wrap;html=1;fillColor=#ffcccc;strokeColor=#36393d;" parent="1" vertex="1"><mxGeometry x="50" y="110" width="70" height="40" as="geometry"/></mxCell><mxCell id="8" value="Search" style="edgeStyle=none;html=1;entryX=0.621;entryY=0.012;entryDx=0;entryDy=0;entryPerimeter=0;fontSize=5;fontColor=#FFFFFF;exitX=0.383;exitY=0.883;exitDx=0;exitDy=0;exitPerimeter=0;" parent="1" source="65" target="51" edge="1"><mxGeometry relative="1" as="geometry"><mxPoint x="65.3479985575189" y="276.2783988460152" as="sourcePoint"/><mxPoint x="37.71999999999997" y="310" as="targetPoint"/></mxGeometry></mxCell><mxCell id="11" value="Explore" style="edgeStyle=none;html=1;fontSize=5;fontColor=#FFFFFF;exitX=1;exitY=1;exitDx=0;exitDy=0;" parent="1" source="65" target="59" edge="1"><mxGeometry x="0.1321" y="1" relative="1" as="geometry"><mxPoint x="88.75" y="265" as="sourcePoint"/><mxPoint x="160" y="340" as="targetPoint"/><mxPoint as="offset"/></mxGeometry></mxCell><mxCell id="12" style="edgeStyle=none;html=1;entryX=0;entryY=0.5;entryDx=0;entryDy=0;fontSize=9;fontColor=#FFFFFF;exitX=0.75;exitY=1;exitDx=0;exitDy=0;" parent="1" source="51" target="59" edge="1"><mxGeometry relative="1" as="geometry"><mxPoint x="79" y="350" as="sourcePoint"/><mxPoint x="130" y="380" as="targetPoint"/></mxGeometry></mxCell><mxCell id="15" style="edgeStyle=none;html=1;fontSize=7;fontColor=#FFFFFF;exitX=0.854;exitY=1.023;exitDx=0;exitDy=0;exitPerimeter=0;" parent="1" source="59" target="13" edge="1"><mxGeometry relative="1" as="geometry"><mxPoint x="190" y="390" as="sourcePoint"/></mxGeometry></mxCell><mxCell id="43" style="edgeStyle=none;html=1;fontSize=7;fontColor=#FFFFFF;" parent="1" source="13" target="26" edge="1"><mxGeometry relative="1" as="geometry"/></mxCell><mxCell id="44" value="No" style="edgeLabel;html=1;align=center;verticalAlign=middle;resizable=0;points=[];fontSize=7;fontColor=#FFFFFF;" parent="43" vertex="1" connectable="0"><mxGeometry x="-0.0536" relative="1" as="geometry"><mxPoint as="offset"/></mxGeometry></mxCell><mxCell id="45" value="yes" style="edgeStyle=none;html=1;fontSize=7;fontColor=#FFFFFF;entryX=-0.018;entryY=0.568;entryDx=0;entryDy=0;entryPerimeter=0;" parent="1" source="13" target="60" edge="1"><mxGeometry relative="1" as="geometry"><mxPoint x="300" y="490" as="targetPoint"/><Array as="points"><mxPoint x="280" y="480"/></Array></mxGeometry></mxCell><mxCell id="13" value="&lt;font color=&quot;#000000&quot; style=&quot;font-size: 7px;&quot;&gt;View a specific product?&lt;/font&gt;" style="rhombus;whiteSpace=wrap;html=1;labelBackgroundColor=none;fontSize=9;fillColor=#ffcc99;strokeColor=#36393d;" parent="1" vertex="1"><mxGeometry x="190" y="410" width="70" height="60" as="geometry"/></mxCell><mxCell id="46" value="yes" style="edgeStyle=none;html=1;fontSize=7;fontColor=#FFFFFF;entryX=0.5;entryY=1;entryDx=0;entryDy=0;" parent="1" source="19" target="61" edge="1"><mxGeometry relative="1" as="geometry"><mxPoint x="441.52173913043475" y="310" as="targetPoint"/></mxGeometry></mxCell><mxCell id="47" value="No" style="edgeStyle=none;html=1;exitX=0;exitY=0.5;exitDx=0;exitDy=0;fontSize=7;fontColor=#FFFFFF;" parent="1" source="19" target="26" edge="1"><mxGeometry relative="1" as="geometry"/></mxCell><mxCell id="19" value="&lt;font color=&quot;#000000&quot;&gt;Add to cart?&lt;/font&gt;" style="rhombus;whiteSpace=wrap;html=1;labelBackgroundColor=none;fontSize=7;fillColor=#ffcc99;strokeColor=#36393d;" parent="1" vertex="1"><mxGeometry x="390" y="370" width="70" height="70" as="geometry"/></mxCell><mxCell id="23" style="edgeStyle=none;html=1;exitX=1;exitY=0.5;exitDx=0;exitDy=0;fontSize=7;fontColor=#FFFFFF;" parent="1" source="60" target="19" edge="1"><mxGeometry relative="1" as="geometry"><mxPoint x="380" y="480" as="sourcePoint"/></mxGeometry></mxCell><mxCell id="55" style="edgeStyle=none;html=1;entryX=1;entryY=0.5;entryDx=0;entryDy=0;fontSize=7;fontColor=#FFFFFF;exitX=0.138;exitY=0.018;exitDx=0;exitDy=0;exitPerimeter=0;" parent="1" source="61" target="26" edge="1"><mxGeometry relative="1" as="geometry"><mxPoint x="410" y="271.7391304347826" as="sourcePoint"/></mxGeometry></mxCell><mxCell id="29" value="yes" style="edgeStyle=none;html=1;exitX=0;exitY=0.5;exitDx=0;exitDy=0;entryX=1;entryY=0.5;entryDx=0;entryDy=0;fontSize=7;fontColor=#FFFFFF;" parent="1" source="26" target="65" edge="1"><mxGeometry relative="1" as="geometry"><mxPoint x="120" y="240" as="targetPoint"/></mxGeometry></mxCell><mxCell id="31" style="edgeStyle=none;html=1;exitX=0.5;exitY=0;exitDx=0;exitDy=0;entryX=0;entryY=0.5;entryDx=0;entryDy=0;fontSize=7;fontColor=#FFFFFF;" parent="1" source="26" target="30" edge="1"><mxGeometry relative="1" as="geometry"/></mxCell><mxCell id="52" value="No" style="edgeLabel;html=1;align=center;verticalAlign=middle;resizable=0;points=[];fontSize=7;fontColor=#FFFFFF;" parent="31" vertex="1" connectable="0"><mxGeometry x="-0.1482" y="2" relative="1" as="geometry"><mxPoint as="offset"/></mxGeometry></mxCell><mxCell id="26" value="&lt;font color=&quot;#000000&quot;&gt;Continue&amp;nbsp; shopping?&lt;/font&gt;" style="rhombus;whiteSpace=wrap;html=1;labelBackgroundColor=none;fontSize=7;fillColor=#ffcc99;strokeColor=#36393d;" parent="1" vertex="1"><mxGeometry x="250" y="190" width="80" height="80" as="geometry"/></mxCell><mxCell id="33" value="No" style="edgeStyle=none;html=1;exitX=0.5;exitY=0;exitDx=0;exitDy=0;fontSize=7;fontColor=#FFFFFF;entryX=0.036;entryY=0.632;entryDx=0;entryDy=0;entryPerimeter=0;" parent="1" source="30" target="56" edge="1"><mxGeometry relative="1" as="geometry"><mxPoint x="500" y="90" as="targetPoint"/></mxGeometry></mxCell><mxCell id="35" value="yes" style="edgeStyle=none;html=1;fontSize=7;fontColor=#FFFFFF;entryX=0.026;entryY=0;entryDx=0;entryDy=0;entryPerimeter=0;" parent="1" source="30" target="62" edge="1"><mxGeometry relative="1" as="geometry"><mxPoint x="490" y="220.55555555555554" as="targetPoint"/></mxGeometry></mxCell><mxCell id="30" value="&lt;font color=&quot;#000000&quot;&gt;Checkout product?&lt;/font&gt;" style="rhombus;whiteSpace=wrap;html=1;labelBackgroundColor=none;fontSize=7;fillColor=#ffcc99;strokeColor=#36393d;" parent="1" vertex="1"><mxGeometry x="385" y="130" width="80" height="80" as="geometry"/></mxCell><mxCell id="37" style="edgeStyle=none;html=1;exitX=0.479;exitY=1.013;exitDx=0;exitDy=0;entryX=0.333;entryY=0;entryDx=0;entryDy=0;fontSize=7;fontColor=#FFFFFF;exitPerimeter=0;entryPerimeter=0;" parent="1" source="62" target="64" edge="1"><mxGeometry relative="1" as="geometry"><mxPoint x="540" y="260" as="sourcePoint"/><mxPoint x="540" y="310" as="targetPoint"/></mxGeometry></mxCell><mxCell id="39" style="edgeStyle=none;html=1;entryX=0.572;entryY=0.983;entryDx=0;entryDy=0;fontSize=7;fontColor=#FFFFFF;entryPerimeter=0;exitX=0.561;exitY=-0.044;exitDx=0;exitDy=0;exitPerimeter=0;" parent="1" source="53" target="63" edge="1"><mxGeometry relative="1" as="geometry"><mxPoint x="700" y="250" as="sourcePoint"/><mxPoint x="674.08" y="190.12" as="targetPoint"/></mxGeometry></mxCell><mxCell id="48" value="Paid" style="edgeLabel;html=1;align=center;verticalAlign=middle;resizable=0;points=[];fontSize=7;fontColor=#FFFFFF;" parent="39" vertex="1" connectable="0"><mxGeometry x="-0.1655" y="1" relative="1" as="geometry"><mxPoint as="offset"/></mxGeometry></mxCell><mxCell id="54" style="edgeStyle=none;html=1;fontSize=7;fontColor=#FFFFFF;entryX=0;entryY=1;entryDx=0;entryDy=0;exitX=1;exitY=0.156;exitDx=0;exitDy=0;exitPerimeter=0;" parent="1" source="64" target="53" edge="1"><mxGeometry relative="1" as="geometry"><mxPoint x="650" y="310" as="targetPoint"/><mxPoint x="610" y="313.8461538461539" as="sourcePoint"/></mxGeometry></mxCell><mxCell id="50" style="edgeStyle=none;html=1;fontSize=7;fontColor=#FFFFFF;entryX=0.996;entryY=0.563;entryDx=0;entryDy=0;entryPerimeter=0;exitX=0.25;exitY=0;exitDx=0;exitDy=0;" parent="1" source="63" target="56" edge="1"><mxGeometry relative="1" as="geometry"><mxPoint x="580" y="90" as="targetPoint"/><mxPoint x="645.4966401954795" y="150" as="sourcePoint"/></mxGeometry></mxCell><mxCell id="51" value="&lt;span style=&quot;font-size: 5px;&quot;&gt;&lt;font color=&quot;#000000&quot;&gt;Input search product&lt;/font&gt;&lt;br&gt;&lt;/span&gt;" style="shape=parallelogram;perimeter=parallelogramPerimeter;whiteSpace=wrap;html=1;fixedSize=1;labelBackgroundColor=none;fontSize=7;fillColor=#cce5ff;strokeColor=#36393d;" parent="1" vertex="1"><mxGeometry x="10" y="320" width="80" height="40" as="geometry"/></mxCell><mxCell id="53" value="&lt;font color=&quot;#000000&quot;&gt;Input Payment &lt;br&gt;Information&lt;/font&gt;" style="shape=parallelogram;perimeter=parallelogramPerimeter;whiteSpace=wrap;html=1;fixedSize=1;labelBackgroundColor=none;fontSize=7;fillColor=#cce5ff;strokeColor=#36393d;" parent="1" vertex="1"><mxGeometry x="640" y="260" width="90" height="40" as="geometry"/></mxCell><mxCell id="56" value="&lt;font color=&quot;#000000&quot;&gt;Exit website&lt;/font&gt;" style="ellipse;whiteSpace=wrap;html=1;labelBackgroundColor=none;fontSize=7;fillColor=#ffcccc;strokeColor=#36393d;" parent="1" vertex="1"><mxGeometry x="500" y="60" width="70" height="50" as="geometry"/></mxCell><mxCell id="59" value="&lt;font color=&quot;#000000&quot; style=&quot;font-size: 7px;&quot;&gt;View Products &lt;br&gt;screen open&lt;/font&gt;" style="rounded=1;whiteSpace=wrap;html=1;labelBackgroundColor=none;fontSize=7;fillColor=#cdeb8b;strokeColor=#36393d;" parent="1" vertex="1"><mxGeometry x="120" y="340" width="80" height="40" as="geometry"/></mxCell><mxCell id="60" value="&lt;font color=&quot;#000000&quot;&gt;Selected product &lt;br&gt;screen open&lt;/font&gt;" style="rounded=1;whiteSpace=wrap;html=1;labelBackgroundColor=none;fontSize=7;fillColor=#cdeb8b;strokeColor=#36393d;" parent="1" vertex="1"><mxGeometry x="300" y="470" width="80" height="40" as="geometry"/></mxCell><mxCell id="61" value="&lt;font color=&quot;#000000&quot;&gt;Comfirmation: Added product to cart&lt;/font&gt;" style="rounded=1;whiteSpace=wrap;html=1;labelBackgroundColor=none;fontSize=7;fillColor=#cdeb8b;strokeColor=#36393d;" parent="1" vertex="1"><mxGeometry x="400" y="270" width="80" height="40" as="geometry"/></mxCell><mxCell id="62" value="&lt;font color=&quot;#000000&quot;&gt;Shopping Cart Screen &lt;br&gt;open&lt;/font&gt;" style="rounded=1;whiteSpace=wrap;html=1;labelBackgroundColor=none;fontSize=7;fillColor=#cdeb8b;strokeColor=#36393d;" parent="1" vertex="1"><mxGeometry x="490" y="220" width="90" height="40" as="geometry"/></mxCell><mxCell id="63" value="&lt;font color=&quot;#000000&quot;&gt;Order Confirmation Screen open and email confirmation sent&lt;/font&gt;" style="rounded=1;whiteSpace=wrap;html=1;labelBackgroundColor=none;fontSize=7;fillColor=#cdeb8b;strokeColor=#36393d;" parent="1" vertex="1"><mxGeometry x="630" y="150" width="80" height="40" as="geometry"/></mxCell><mxCell id="64" value="&lt;font color=&quot;#000000&quot;&gt;Payment Screen open&lt;/font&gt;" style="rounded=1;whiteSpace=wrap;html=1;labelBackgroundColor=none;fontSize=7;fillColor=#cdeb8b;strokeColor=#36393d;" parent="1" vertex="1"><mxGeometry x="510" y="320" width="90" height="40" as="geometry"/></mxCell><mxCell id="65" value="&lt;font color=&quot;#000000&quot;&gt;Search for a product &lt;br&gt;or &lt;br&gt;Explore products &lt;br&gt;on the home page?&lt;/font&gt;" style="rhombus;whiteSpace=wrap;html=1;labelBackgroundColor=none;fontSize=7;fillColor=#ffcc99;strokeColor=#36393d;" parent="1" vertex="1"><mxGeometry x="40" y="180" width="100" height="95" as="geometry"/></mxCell></root></mxGraphModel></diagram></mxfile>